grf
version=1
nRows=6
nColumns=37
inDegrees=no
endheader
time	ground_force_1_vx	ground_force_1_vy	ground_force_1_vz	ground_force_1_px	ground_force_1_py	ground_force_1_pz	ground_moment_1_mx	ground_moment_1_my	ground_moment_1_mz	ground_force_2_vx	ground_force_2_vy	ground_force_2_vz	ground_force_2_px	ground_force_2_py	ground_force_2_pz	ground_moment_2_mx	ground_moment_2_my	ground_moment_2_mz	ground_force_3_vx	ground_force_3_vy	ground_force_3_vz	ground_force_3_px	ground_force_3_py	ground_force_3_pz	ground_moment_3_mx	ground_moment_3_my	ground_moment_3_mz	ground_force_4_vx	ground_force_4_vy	ground_force_4_vz	ground_force_4_px	ground_force_4_py	ground_force_4_pz	ground_moment_4_mx	ground_moment_4_my	ground_moment_4_mz
      5.91000000	      0.00000000	     -0.00000000	      0.00000000	      0.00000000	      0.00000000	      0.00000000	      0.00000000	      0.00000000	      0.00000000	      0.00000000	     -0.00000000	      0.00000000	      0.00000000	      0.00000000	      0.00000000	      0.00000000	      0.00000000	      0.00000000	      0.00000000	     -0.00000000	      0.00000000	      0.00000000	      0.00000000	      0.00000000	      0.00000000	      0.00000000	      0.00000000	      0.00000000	     -0.00000000	      0.00000000	      0.00000000	      0.00000000	      0.00000000	      0.00000000	      0.00000000	      0.00000000
      5.92000000	      0.00000000	     -0.00000000	      0.00000000	      0.00000000	      0.00000000	      0.00000000	      0.00000000	      0.00000000	      0.00000000	      0.00000000	     -0.00000000	      0.00000000	      0.00000000	      0.00000000	      0.00000000	      0.00000000	      0.00000000	      0.00000000	     10.96474339	    -13.42774201	   -324.54525757	   -136.57199166	   -591.00411116	      0.00000000	     -0.00000000	     -0.00000000	   -192.17666264	      0.00000000	     -0.00000000	      0.00000000	      0.00000000	      0.00000000	      0.00000000	      0.00000000	      0.00000000	      0.00000000
      5.93000000	      0.00000000	     -0.00000000	      0.00000000	      0.00000000	      0.00000000	      0.00000000	      0.00000000	      0.00000000	      0.00000000	    -44.05794144	    -10.47374153	   -239.43859863	   -165.95603628	  -1131.60137213	      0.00000000	      0.00000000	     -0.00000000	   -295.38916989	   -241.00066769	   -132.26166716	   -462.24926758	   -126.08625346	   -594.87179694	      0.00000000	      0.00000000	     -0.00000000	    -39.95158601	      0.00000000	     -0.00000000	      0.00000000	      0.00000000	      0.00000000	      0.00000000	      0.00000000	      0.00000000	      0.00000000
      5.94000000	      0.00000000	     -0.00000000	      0.00000000	      0.00000000	      0.00000000	      0.00000000	      0.00000000	      0.00000000	      0.00000000	   -187.48403931	    236.07278442	   -633.95989990	   -224.83409759	  -1104.23017765	      0.00000000	      0.00000000	     -0.00000000	  -8025.86679261	    457.07450138	   -257.93290129	  -4378.24169922	   -234.04072667	   -653.25081937	      0.00000000	      0.00000000	     -0.00000000	  -2822.55174097	      0.00000000	     -0.00000000	      0.00000000	      0.00000000	      0.00000000	      0.00000000	      0.00000000	      0.00000000	      0.00000000
      5.95000000	      0.00000000	     -0.00000000	      0.00000000	      0.00000000	      0.00000000	      0.00000000	      0.00000000	      0.00000000	      0.00000000	    842.29748535	     79.21849060	  -3007.73071289	   -291.07315727	  -1058.05221092	      0.00000000	      0.00000000	     -0.00000000	   8456.59320210	    326.87508680	    -54.38293644	  -2720.74780273	   -218.45021840	   -653.44653273	      0.00000000	      0.00000000	     -0.00000000	  -5902.45598606	      0.00000000	     -0.00000000	      0.00000000	      0.00000000	      0.00000000	      0.00000000	      0.00000000	      0.00000000	      0.00000000
      5.96000000	      0.00000000	     -0.00000000	      0.00000000	      0.00000000	      0.00000000	      0.00000000	      0.00000000	      0.00000000	      0.00000000	    192.39167786	     55.58449173	  -1615.24438477	   -262.40105767	  -1066.23684088	      0.00000000	      0.00000000	      0.00000000	    581.04231261	   -249.55315017	   -218.06754410	  -1568.54846191	   -169.40713297	   -631.59529324	      0.00000000	      0.00000000	     -0.00000000	 -10205.67078670	      0.00000000	     -0.00000000	      0.00000000	      0.00000000	      0.00000000	      0.00000000	      0.00000000	      0.00000000	      0.00000000
